<mxfile host="app.diagrams.net" modified="2023-03-18T15:49:18.971Z" agent="5.0 (Windows NT 10.0; Win64; x64) AppleWebKit/537.36 (KHTML, like Gecko) Chrome/109.0.0.0 Safari/537.36 Edg/109.0.1518.70" etag="n8VoDb84n54h_FfocJAe" version="21.0.8" type="github" pages="2">
  <diagram id="aBPDVvVLKLGPg7GCLv61" name="图1">
    <mxGraphModel dx="747" dy="438" grid="1" gridSize="10" guides="1" tooltips="1" connect="1" arrows="1" fold="1" page="1" pageScale="1" pageWidth="827" pageHeight="1169" math="0" shadow="0">
      <root>
        <mxCell id="0" />
        <mxCell id="1" parent="0" />
        <mxCell id="WaLiMhug5n1nE3xd5-q1-1" value="初始全局模型" style="rounded=1;whiteSpace=wrap;html=1;fontSize=12;glass=0;strokeWidth=1;shadow=0;" parent="1" vertex="1">
          <mxGeometry x="350" y="162" width="120" height="40" as="geometry" />
        </mxCell>
        <mxCell id="WaLiMhug5n1nE3xd5-q1-2" value="否" style="rounded=0;html=1;jettySize=auto;orthogonalLoop=1;fontSize=11;endArrow=block;endFill=0;endSize=8;strokeWidth=1;shadow=0;labelBackgroundColor=none;edgeStyle=orthogonalEdgeStyle;entryX=0.5;entryY=0;entryDx=0;entryDy=0;" parent="1" source="WaLiMhug5n1nE3xd5-q1-4" target="WaLiMhug5n1nE3xd5-q1-12" edge="1">
          <mxGeometry y="20" relative="1" as="geometry">
            <mxPoint as="offset" />
            <mxPoint x="410" y="461" as="targetPoint" />
          </mxGeometry>
        </mxCell>
        <mxCell id="WaLiMhug5n1nE3xd5-q1-3" value="是" style="edgeStyle=orthogonalEdgeStyle;rounded=0;html=1;jettySize=auto;orthogonalLoop=1;fontSize=11;endArrow=block;endFill=0;endSize=8;strokeWidth=1;shadow=0;labelBackgroundColor=none;entryX=0.5;entryY=0;entryDx=0;entryDy=0;" parent="1" source="WaLiMhug5n1nE3xd5-q1-4" target="WaLiMhug5n1nE3xd5-q1-11" edge="1">
          <mxGeometry y="10" relative="1" as="geometry">
            <mxPoint as="offset" />
          </mxGeometry>
        </mxCell>
        <mxCell id="WaLiMhug5n1nE3xd5-q1-4" value="客户端是否&lt;br&gt;初次参加训练" style="rhombus;whiteSpace=wrap;html=1;shadow=0;fontFamily=Helvetica;fontSize=12;align=center;strokeWidth=1;spacing=6;spacingTop=-4;" parent="1" vertex="1">
          <mxGeometry x="360" y="301" width="100" height="80" as="geometry" />
        </mxCell>
        <mxCell id="WaLiMhug5n1nE3xd5-q1-5" value="开始" style="ellipse;whiteSpace=wrap;html=1;" parent="1" vertex="1">
          <mxGeometry x="370" y="90" width="80" height="40" as="geometry" />
        </mxCell>
        <mxCell id="WaLiMhug5n1nE3xd5-q1-6" value="" style="rounded=0;html=1;jettySize=auto;orthogonalLoop=1;fontSize=11;endArrow=block;endFill=0;endSize=8;strokeWidth=1;shadow=0;labelBackgroundColor=none;edgeStyle=orthogonalEdgeStyle;entryX=0.5;entryY=0;entryDx=0;entryDy=0;exitX=0.5;exitY=1;exitDx=0;exitDy=0;" parent="1" source="WaLiMhug5n1nE3xd5-q1-5" target="WaLiMhug5n1nE3xd5-q1-1" edge="1">
          <mxGeometry relative="1" as="geometry">
            <mxPoint x="409.76" y="124" as="sourcePoint" />
            <mxPoint x="410" y="164" as="targetPoint" />
            <Array as="points" />
          </mxGeometry>
        </mxCell>
        <mxCell id="WaLiMhug5n1nE3xd5-q1-7" value="下发全局模型至客户端" style="rounded=1;whiteSpace=wrap;html=1;fontSize=12;glass=0;strokeWidth=1;shadow=0;" parent="1" vertex="1">
          <mxGeometry x="345" y="230" width="130" height="40" as="geometry" />
        </mxCell>
        <mxCell id="WaLiMhug5n1nE3xd5-q1-8" value="" style="rounded=0;html=1;jettySize=auto;orthogonalLoop=1;fontSize=11;endArrow=block;endFill=0;endSize=8;strokeWidth=1;shadow=0;labelBackgroundColor=none;edgeStyle=orthogonalEdgeStyle;exitX=0.5;exitY=1;exitDx=0;exitDy=0;entryX=0.5;entryY=0;entryDx=0;entryDy=0;" parent="1" source="WaLiMhug5n1nE3xd5-q1-1" target="WaLiMhug5n1nE3xd5-q1-7" edge="1">
          <mxGeometry relative="1" as="geometry">
            <mxPoint x="409.83" y="190" as="sourcePoint" />
            <mxPoint x="410.07" y="230" as="targetPoint" />
            <Array as="points" />
          </mxGeometry>
        </mxCell>
        <mxCell id="WaLiMhug5n1nE3xd5-q1-9" value="" style="rounded=0;html=1;jettySize=auto;orthogonalLoop=1;fontSize=11;endArrow=block;endFill=0;endSize=8;strokeWidth=1;shadow=0;labelBackgroundColor=none;edgeStyle=orthogonalEdgeStyle;exitX=0.5;exitY=1;exitDx=0;exitDy=0;entryX=0.5;entryY=0;entryDx=0;entryDy=0;" parent="1" source="WaLiMhug5n1nE3xd5-q1-7" target="WaLiMhug5n1nE3xd5-q1-4" edge="1">
          <mxGeometry relative="1" as="geometry">
            <mxPoint x="409.85999999999996" y="261" as="sourcePoint" />
            <mxPoint x="410.09999999999997" y="301" as="targetPoint" />
            <Array as="points" />
          </mxGeometry>
        </mxCell>
        <mxCell id="WaLiMhug5n1nE3xd5-q1-10" style="edgeStyle=orthogonalEdgeStyle;rounded=0;orthogonalLoop=1;jettySize=auto;html=1;exitX=0.5;exitY=1;exitDx=0;exitDy=0;entryX=1;entryY=0.5;entryDx=0;entryDy=0;labelBackgroundColor=none;endArrow=block;endFill=0;endSize=8;strokeWidth=1;shadow=0;" parent="1" source="WaLiMhug5n1nE3xd5-q1-11" target="WaLiMhug5n1nE3xd5-q1-12" edge="1">
          <mxGeometry relative="1" as="geometry" />
        </mxCell>
        <mxCell id="WaLiMhug5n1nE3xd5-q1-11" value="接收客户端平衡度" style="rounded=1;whiteSpace=wrap;html=1;fontSize=12;glass=0;strokeWidth=1;shadow=0;" parent="1" vertex="1">
          <mxGeometry x="510" y="381" width="120" height="40" as="geometry" />
        </mxCell>
        <mxCell id="WaLiMhug5n1nE3xd5-q1-12" value="接收客户端模型参数和模型精度并计算聚合权重" style="rounded=1;whiteSpace=wrap;html=1;fontSize=12;glass=0;strokeWidth=1;shadow=0;" parent="1" vertex="1">
          <mxGeometry x="350" y="421" width="120" height="70" as="geometry" />
        </mxCell>
        <mxCell id="Zmd_qZqpM1uoM6uoX9SE-4" style="edgeStyle=orthogonalEdgeStyle;rounded=0;orthogonalLoop=1;jettySize=auto;html=1;exitX=0.5;exitY=1;exitDx=0;exitDy=0;entryX=0.5;entryY=0;entryDx=0;entryDy=0;endSize=8;endArrow=block;endFill=0;" parent="1" source="WaLiMhug5n1nE3xd5-q1-13" target="WaLiMhug5n1nE3xd5-q1-22" edge="1">
          <mxGeometry relative="1" as="geometry" />
        </mxCell>
        <mxCell id="WaLiMhug5n1nE3xd5-q1-13" value="更新全局模型" style="rounded=1;whiteSpace=wrap;html=1;fontSize=12;glass=0;strokeWidth=1;shadow=0;" parent="1" vertex="1">
          <mxGeometry x="350" y="521" width="120" height="40" as="geometry" />
        </mxCell>
        <mxCell id="WaLiMhug5n1nE3xd5-q1-14" value="" style="rounded=0;html=1;jettySize=auto;orthogonalLoop=1;fontSize=11;endArrow=block;endFill=0;endSize=8;strokeWidth=1;shadow=0;labelBackgroundColor=none;edgeStyle=orthogonalEdgeStyle;entryX=0.5;entryY=0;entryDx=0;entryDy=0;exitX=0.5;exitY=1;exitDx=0;exitDy=0;" parent="1" source="WaLiMhug5n1nE3xd5-q1-12" target="WaLiMhug5n1nE3xd5-q1-13" edge="1">
          <mxGeometry relative="1" as="geometry">
            <mxPoint x="409.79999999999995" y="531" as="sourcePoint" />
            <mxPoint x="410.03999999999996" y="571" as="targetPoint" />
            <Array as="points" />
          </mxGeometry>
        </mxCell>
        <mxCell id="Zmd_qZqpM1uoM6uoX9SE-7" style="edgeStyle=orthogonalEdgeStyle;rounded=0;orthogonalLoop=1;jettySize=auto;html=1;exitX=0.5;exitY=1;exitDx=0;exitDy=0;entryX=0.5;entryY=0;entryDx=0;entryDy=0;endSize=8;endArrow=block;endFill=0;" parent="1" source="WaLiMhug5n1nE3xd5-q1-18" target="WaLiMhug5n1nE3xd5-q1-25" edge="1">
          <mxGeometry relative="1" as="geometry" />
        </mxCell>
        <mxCell id="Zmd_qZqpM1uoM6uoX9SE-11" style="edgeStyle=orthogonalEdgeStyle;rounded=0;orthogonalLoop=1;jettySize=auto;html=1;exitX=0;exitY=0.5;exitDx=0;exitDy=0;endSize=8;endArrow=block;endFill=0;" parent="1" source="WaLiMhug5n1nE3xd5-q1-18" edge="1">
          <mxGeometry relative="1" as="geometry">
            <mxPoint x="410" y="210" as="targetPoint" />
            <Array as="points">
              <mxPoint x="280" y="780" />
              <mxPoint x="280" y="210" />
            </Array>
          </mxGeometry>
        </mxCell>
        <mxCell id="WaLiMhug5n1nE3xd5-q1-18" value="&lt;br&gt;达到预设准确率？" style="rhombus;whiteSpace=wrap;html=1;shadow=0;fontFamily=Helvetica;fontSize=12;align=center;strokeWidth=1;spacing=6;spacingTop=-4;" parent="1" vertex="1">
          <mxGeometry x="345" y="740" width="130" height="80" as="geometry" />
        </mxCell>
        <mxCell id="Zmd_qZqpM1uoM6uoX9SE-5" style="edgeStyle=orthogonalEdgeStyle;rounded=0;orthogonalLoop=1;jettySize=auto;html=1;exitX=0.5;exitY=1;exitDx=0;exitDy=0;entryX=0.5;entryY=0;entryDx=0;entryDy=0;endArrow=block;endFill=0;endSize=8;" parent="1" source="WaLiMhug5n1nE3xd5-q1-22" target="WaLiMhug5n1nE3xd5-q1-18" edge="1">
          <mxGeometry relative="1" as="geometry" />
        </mxCell>
        <mxCell id="Zmd_qZqpM1uoM6uoX9SE-9" style="edgeStyle=orthogonalEdgeStyle;rounded=0;orthogonalLoop=1;jettySize=auto;html=1;exitX=1;exitY=0.5;exitDx=0;exitDy=0;entryX=1;entryY=0.5;entryDx=0;entryDy=0;endArrow=block;endFill=0;endSize=8;" parent="1" source="WaLiMhug5n1nE3xd5-q1-22" target="WaLiMhug5n1nE3xd5-q1-25" edge="1">
          <mxGeometry relative="1" as="geometry" />
        </mxCell>
        <mxCell id="WaLiMhug5n1nE3xd5-q1-22" value="&lt;br&gt;达到迭代终止次数？" style="rhombus;whiteSpace=wrap;html=1;shadow=0;fontFamily=Helvetica;fontSize=12;align=center;strokeWidth=1;spacing=6;spacingTop=-4;" parent="1" vertex="1">
          <mxGeometry x="338" y="600" width="144" height="90" as="geometry" />
        </mxCell>
        <mxCell id="WaLiMhug5n1nE3xd5-q1-25" value="下发最新全局模型并终止客户端继续训练" style="rounded=1;whiteSpace=wrap;html=1;fontSize=12;glass=0;strokeWidth=1;shadow=0;" parent="1" vertex="1">
          <mxGeometry x="350" y="870" width="120" height="40" as="geometry" />
        </mxCell>
        <mxCell id="WaLiMhug5n1nE3xd5-q1-26" value="结束" style="ellipse;whiteSpace=wrap;html=1;" parent="1" vertex="1">
          <mxGeometry x="370" y="960" width="80" height="40" as="geometry" />
        </mxCell>
        <mxCell id="WaLiMhug5n1nE3xd5-q1-27" value="" style="rounded=0;html=1;jettySize=auto;orthogonalLoop=1;fontSize=11;endArrow=block;endFill=0;endSize=8;strokeWidth=1;shadow=0;labelBackgroundColor=none;edgeStyle=orthogonalEdgeStyle;entryX=0.5;entryY=0;entryDx=0;entryDy=0;exitX=0.5;exitY=1;exitDx=0;exitDy=0;" parent="1" source="WaLiMhug5n1nE3xd5-q1-25" target="WaLiMhug5n1nE3xd5-q1-26" edge="1">
          <mxGeometry relative="1" as="geometry">
            <mxPoint x="409.79999999999995" y="761" as="sourcePoint" />
            <mxPoint x="410" y="801" as="targetPoint" />
            <Array as="points" />
          </mxGeometry>
        </mxCell>
        <mxCell id="Zmd_qZqpM1uoM6uoX9SE-6" value="否" style="text;html=1;align=center;verticalAlign=middle;resizable=0;points=[];autosize=1;strokeColor=none;fillColor=none;" parent="1" vertex="1">
          <mxGeometry x="405" y="690" width="40" height="30" as="geometry" />
        </mxCell>
        <mxCell id="Zmd_qZqpM1uoM6uoX9SE-8" value="是" style="text;html=1;align=center;verticalAlign=middle;resizable=0;points=[];autosize=1;strokeColor=none;fillColor=none;" parent="1" vertex="1">
          <mxGeometry x="410" y="830" width="40" height="30" as="geometry" />
        </mxCell>
        <mxCell id="Zmd_qZqpM1uoM6uoX9SE-10" value="是" style="text;html=1;align=center;verticalAlign=middle;resizable=0;points=[];autosize=1;strokeColor=none;fillColor=none;" parent="1" vertex="1">
          <mxGeometry x="500" y="730" width="40" height="30" as="geometry" />
        </mxCell>
        <mxCell id="Zmd_qZqpM1uoM6uoX9SE-12" value="否" style="text;html=1;align=center;verticalAlign=middle;resizable=0;points=[];autosize=1;strokeColor=none;fillColor=none;" parent="1" vertex="1">
          <mxGeometry x="250" y="630" width="40" height="30" as="geometry" />
        </mxCell>
      </root>
    </mxGraphModel>
  </diagram>
  <diagram name="图2" id="knUQhLOUun2cT7B-BUvB">
    <mxGraphModel grid="1" page="1" gridSize="10" guides="1" tooltips="1" connect="1" arrows="1" fold="1" pageScale="1" pageWidth="827" pageHeight="1169" math="0" shadow="0">
      <root>
        <mxCell id="d9V2FUUvwQNaTKbuZrYA-0" />
        <mxCell id="d9V2FUUvwQNaTKbuZrYA-1" parent="d9V2FUUvwQNaTKbuZrYA-0" />
        <mxCell id="d9V2FUUvwQNaTKbuZrYA-6" value="开始" style="ellipse;whiteSpace=wrap;html=1;" parent="d9V2FUUvwQNaTKbuZrYA-1" vertex="1">
          <mxGeometry x="360" y="90" width="80" height="40" as="geometry" />
        </mxCell>
        <mxCell id="d9V2FUUvwQNaTKbuZrYA-7" value="" style="rounded=0;html=1;jettySize=auto;orthogonalLoop=1;fontSize=11;endArrow=block;endFill=0;endSize=8;strokeWidth=1;shadow=0;labelBackgroundColor=none;edgeStyle=orthogonalEdgeStyle;entryX=0.5;entryY=0;entryDx=0;entryDy=0;exitX=0.5;exitY=1;exitDx=0;exitDy=0;" parent="d9V2FUUvwQNaTKbuZrYA-1" source="d9V2FUUvwQNaTKbuZrYA-6" target="-yFnxwDGMzr1Os80u9I5-0" edge="1">
          <mxGeometry relative="1" as="geometry">
            <mxPoint x="399.76" y="124" as="sourcePoint" />
            <mxPoint x="400" y="162" as="targetPoint" />
            <Array as="points" />
          </mxGeometry>
        </mxCell>
        <mxCell id="-yFnxwDGMzr1Os80u9I5-2" style="edgeStyle=orthogonalEdgeStyle;rounded=0;orthogonalLoop=1;jettySize=auto;html=1;exitX=0.5;exitY=1;exitDx=0;exitDy=0;entryX=0.5;entryY=0;entryDx=0;entryDy=0;" edge="1" parent="d9V2FUUvwQNaTKbuZrYA-1" source="-yFnxwDGMzr1Os80u9I5-0" target="-yFnxwDGMzr1Os80u9I5-1">
          <mxGeometry relative="1" as="geometry" />
        </mxCell>
        <mxCell id="-yFnxwDGMzr1Os80u9I5-0" value="下载全局模型" style="rounded=1;whiteSpace=wrap;html=1;fontSize=12;glass=0;strokeWidth=1;shadow=0;" vertex="1" parent="d9V2FUUvwQNaTKbuZrYA-1">
          <mxGeometry x="335" y="170" width="130" height="40" as="geometry" />
        </mxCell>
        <mxCell id="R5zYQFnypa_UQ7LJFy0S-10" style="edgeStyle=orthogonalEdgeStyle;rounded=0;orthogonalLoop=1;jettySize=auto;html=1;exitX=0.5;exitY=1;exitDx=0;exitDy=0;entryX=0.5;entryY=0;entryDx=0;entryDy=0;" edge="1" parent="d9V2FUUvwQNaTKbuZrYA-1" source="-yFnxwDGMzr1Os80u9I5-1" target="R5zYQFnypa_UQ7LJFy0S-0">
          <mxGeometry relative="1" as="geometry" />
        </mxCell>
        <mxCell id="-yFnxwDGMzr1Os80u9I5-1" value="训练本地模型并测试精度" style="rounded=1;whiteSpace=wrap;html=1;fontSize=12;glass=0;strokeWidth=1;shadow=0;" vertex="1" parent="d9V2FUUvwQNaTKbuZrYA-1">
          <mxGeometry x="330" y="250" width="140" height="40" as="geometry" />
        </mxCell>
        <mxCell id="R5zYQFnypa_UQ7LJFy0S-2" style="edgeStyle=orthogonalEdgeStyle;rounded=0;orthogonalLoop=1;jettySize=auto;html=1;exitX=0.5;exitY=1;exitDx=0;exitDy=0;entryX=0.5;entryY=0;entryDx=0;entryDy=0;" edge="1" parent="d9V2FUUvwQNaTKbuZrYA-1" source="R5zYQFnypa_UQ7LJFy0S-0" target="R5zYQFnypa_UQ7LJFy0S-1">
          <mxGeometry relative="1" as="geometry" />
        </mxCell>
        <mxCell id="R5zYQFnypa_UQ7LJFy0S-3" value="否" style="edgeLabel;html=1;align=center;verticalAlign=middle;resizable=0;points=[];" connectable="0" vertex="1" parent="R5zYQFnypa_UQ7LJFy0S-2">
          <mxGeometry x="-0.1998" y="-1" relative="1" as="geometry">
            <mxPoint x="15" as="offset" />
          </mxGeometry>
        </mxCell>
        <mxCell id="R5zYQFnypa_UQ7LJFy0S-5" style="edgeStyle=orthogonalEdgeStyle;rounded=0;orthogonalLoop=1;jettySize=auto;html=1;exitX=1;exitY=0.5;exitDx=0;exitDy=0;entryX=0;entryY=0.5;entryDx=0;entryDy=0;" edge="1" parent="d9V2FUUvwQNaTKbuZrYA-1" source="R5zYQFnypa_UQ7LJFy0S-0" target="R5zYQFnypa_UQ7LJFy0S-4">
          <mxGeometry relative="1" as="geometry" />
        </mxCell>
        <mxCell id="R5zYQFnypa_UQ7LJFy0S-6" value="是" style="edgeLabel;html=1;align=center;verticalAlign=middle;resizable=0;points=[];" connectable="0" vertex="1" parent="R5zYQFnypa_UQ7LJFy0S-5">
          <mxGeometry x="-0.2086" y="2" relative="1" as="geometry">
            <mxPoint x="2" y="-8" as="offset" />
          </mxGeometry>
        </mxCell>
        <mxCell id="R5zYQFnypa_UQ7LJFy0S-0" value="&lt;br&gt;是否第一次参加训练？" style="rhombus;whiteSpace=wrap;html=1;shadow=0;fontFamily=Helvetica;fontSize=12;align=center;strokeWidth=1;spacing=6;spacingTop=-4;" vertex="1" parent="d9V2FUUvwQNaTKbuZrYA-1">
          <mxGeometry x="350" y="320" width="100" height="80" as="geometry" />
        </mxCell>
        <mxCell id="R5zYQFnypa_UQ7LJFy0S-11" style="edgeStyle=orthogonalEdgeStyle;rounded=0;orthogonalLoop=1;jettySize=auto;html=1;exitX=0.5;exitY=1;exitDx=0;exitDy=0;entryX=0.5;entryY=0;entryDx=0;entryDy=0;" edge="1" parent="d9V2FUUvwQNaTKbuZrYA-1" source="R5zYQFnypa_UQ7LJFy0S-1" target="R5zYQFnypa_UQ7LJFy0S-9">
          <mxGeometry relative="1" as="geometry" />
        </mxCell>
        <mxCell id="R5zYQFnypa_UQ7LJFy0S-1" value="上传模型精度与本地模型" style="rounded=1;whiteSpace=wrap;html=1;fontSize=12;glass=0;strokeWidth=1;shadow=0;" vertex="1" parent="d9V2FUUvwQNaTKbuZrYA-1">
          <mxGeometry x="330" y="440" width="140" height="40" as="geometry" />
        </mxCell>
        <mxCell id="R5zYQFnypa_UQ7LJFy0S-8" style="edgeStyle=orthogonalEdgeStyle;rounded=0;orthogonalLoop=1;jettySize=auto;html=1;exitX=0.5;exitY=1;exitDx=0;exitDy=0;entryX=0.5;entryY=0;entryDx=0;entryDy=0;" edge="1" parent="d9V2FUUvwQNaTKbuZrYA-1" source="R5zYQFnypa_UQ7LJFy0S-4" target="R5zYQFnypa_UQ7LJFy0S-7">
          <mxGeometry relative="1" as="geometry" />
        </mxCell>
        <mxCell id="R5zYQFnypa_UQ7LJFy0S-4" value="构建本地数据概率分布并计算平衡度" style="rounded=1;whiteSpace=wrap;html=1;fontSize=12;glass=0;strokeWidth=1;shadow=0;" vertex="1" parent="d9V2FUUvwQNaTKbuZrYA-1">
          <mxGeometry x="520" y="340" width="140" height="40" as="geometry" />
        </mxCell>
        <mxCell id="R5zYQFnypa_UQ7LJFy0S-12" style="edgeStyle=orthogonalEdgeStyle;rounded=0;orthogonalLoop=1;jettySize=auto;html=1;exitX=0;exitY=0.5;exitDx=0;exitDy=0;" edge="1" parent="d9V2FUUvwQNaTKbuZrYA-1" source="R5zYQFnypa_UQ7LJFy0S-7">
          <mxGeometry relative="1" as="geometry">
            <mxPoint x="400" y="500.04761904761904" as="targetPoint" />
          </mxGeometry>
        </mxCell>
        <mxCell id="R5zYQFnypa_UQ7LJFy0S-7" value="上传平衡度模型精度与本地模型" style="rounded=1;whiteSpace=wrap;html=1;fontSize=12;glass=0;strokeWidth=1;shadow=0;" vertex="1" parent="d9V2FUUvwQNaTKbuZrYA-1">
          <mxGeometry x="520" y="480" width="140" height="40" as="geometry" />
        </mxCell>
        <mxCell id="R5zYQFnypa_UQ7LJFy0S-14" style="edgeStyle=orthogonalEdgeStyle;rounded=0;orthogonalLoop=1;jettySize=auto;html=1;exitX=0.5;exitY=1;exitDx=0;exitDy=0;entryX=0.5;entryY=0;entryDx=0;entryDy=0;" edge="1" parent="d9V2FUUvwQNaTKbuZrYA-1" source="R5zYQFnypa_UQ7LJFy0S-9" target="R5zYQFnypa_UQ7LJFy0S-13">
          <mxGeometry relative="1" as="geometry" />
        </mxCell>
        <mxCell id="R5zYQFnypa_UQ7LJFy0S-20" value="是" style="edgeLabel;html=1;align=center;verticalAlign=middle;resizable=0;points=[];" connectable="0" vertex="1" parent="R5zYQFnypa_UQ7LJFy0S-14">
          <mxGeometry x="-0.3817" relative="1" as="geometry">
            <mxPoint x="14" as="offset" />
          </mxGeometry>
        </mxCell>
        <mxCell id="R5zYQFnypa_UQ7LJFy0S-17" style="edgeStyle=orthogonalEdgeStyle;rounded=0;orthogonalLoop=1;jettySize=auto;html=1;exitX=0;exitY=0.5;exitDx=0;exitDy=0;" edge="1" parent="d9V2FUUvwQNaTKbuZrYA-1" source="R5zYQFnypa_UQ7LJFy0S-9">
          <mxGeometry relative="1" as="geometry">
            <mxPoint x="400" y="140" as="targetPoint" />
            <Array as="points">
              <mxPoint x="300" y="560" />
              <mxPoint x="300" y="140" />
            </Array>
          </mxGeometry>
        </mxCell>
        <mxCell id="R5zYQFnypa_UQ7LJFy0S-18" value="否" style="edgeLabel;html=1;align=center;verticalAlign=middle;resizable=0;points=[];" connectable="0" vertex="1" parent="R5zYQFnypa_UQ7LJFy0S-17">
          <mxGeometry x="-0.8917" relative="1" as="geometry">
            <mxPoint x="11" y="-10" as="offset" />
          </mxGeometry>
        </mxCell>
        <mxCell id="R5zYQFnypa_UQ7LJFy0S-9" value="&lt;br&gt;收到终止训练命令？" style="rhombus;whiteSpace=wrap;html=1;shadow=0;fontFamily=Helvetica;fontSize=12;align=center;strokeWidth=1;spacing=6;spacingTop=-4;" vertex="1" parent="d9V2FUUvwQNaTKbuZrYA-1">
          <mxGeometry x="350" y="520" width="100" height="80" as="geometry" />
        </mxCell>
        <mxCell id="R5zYQFnypa_UQ7LJFy0S-16" style="edgeStyle=orthogonalEdgeStyle;rounded=0;orthogonalLoop=1;jettySize=auto;html=1;exitX=0.5;exitY=1;exitDx=0;exitDy=0;entryX=0.5;entryY=0;entryDx=0;entryDy=0;" edge="1" parent="d9V2FUUvwQNaTKbuZrYA-1" source="R5zYQFnypa_UQ7LJFy0S-13" target="R5zYQFnypa_UQ7LJFy0S-15">
          <mxGeometry relative="1" as="geometry" />
        </mxCell>
        <mxCell id="R5zYQFnypa_UQ7LJFy0S-13" value="下载最新全局模型" style="rounded=1;whiteSpace=wrap;html=1;fontSize=12;glass=0;strokeWidth=1;shadow=0;" vertex="1" parent="d9V2FUUvwQNaTKbuZrYA-1">
          <mxGeometry x="330" y="630" width="140" height="40" as="geometry" />
        </mxCell>
        <mxCell id="R5zYQFnypa_UQ7LJFy0S-15" value="结束" style="ellipse;whiteSpace=wrap;html=1;" vertex="1" parent="d9V2FUUvwQNaTKbuZrYA-1">
          <mxGeometry x="360" y="700" width="80" height="40" as="geometry" />
        </mxCell>
      </root>
    </mxGraphModel>
  </diagram>
</mxfile>
